<svg version="1.0" xmlns="http://www.w3.org/2000/svg"
 style="height: 20px; width: 20px; display: block; fill: currentcolor; backgound: rgba(0,0,0, .1)" viewBox="0 0 128.000000 128.000000"
 preserveAspectRatio="xMidYMid meet">

<g transform="translate(0.000000,128.000000) scale(0.100000,-0.100000)"
fill="yellow" stroke="none">
<path d="M500 1084 c-148 -32 -288 -132 -344 -246 -75 -153 -24 -333 124 -442
33 -24 65 -46 72 -48 8 -3 4 -32 -15 -99 -15 -51 -27 -97 -27 -101 0 -18 30
-4 127 62 l103 70 83 0 c228 1 424 104 503 265 25 52 29 71 29 145 0 74 -4 93
-29 145 -96 196 -369 305 -626 249z m-46 -291 c8 -21 -18 -43 -51 -43 -21 0
-22 -4 -25 -97 -3 -86 -5 -98 -22 -101 -29 -6 -36 16 -36 111 0 79 -2 87 -19
87 -32 0 -51 11 -51 29 0 28 9 31 106 31 78 0 93 -3 98 -17z m104 4 c18 -21
82 -196 82 -223 0 -33 -37 -33 -52 1 -10 21 -18 25 -58 25 -40 0 -48 -4 -58
-25 -15 -34 -52 -34 -52 -1 0 27 64 202 82 223 6 7 18 13 28 13 10 0 22 -6 28
-13z m160 -89 l3 -98 32 0 c41 0 60 -13 55 -36 -3 -16 -14 -20 -61 -22 -83 -4
-87 1 -87 123 0 120 4 137 34 133 20 -3 21 -10 24 -100z m160 90 c7 -7 12 -25
12 -41 l0 -30 45 42 c26 23 51 41 58 38 25 -8 18 -40 -17 -76 l-36 -37 40 -53
c43 -57 48 -84 15 -89 -14 -2 -32 13 -60 50 l-40 53 -3 -42 c-3 -44 -22 -69
-47 -59 -12 4 -15 27 -15 124 0 65 3 122 7 125 10 11 28 8 41 -5z"/>
<path d="M516 706 c-3 -13 -9 -31 -12 -40 -5 -13 1 -16 26 -16 25 0 31 3 26
16 -3 9 -9 27 -12 40 -3 13 -10 24 -14 24 -4 0 -11 -11 -14 -24z"/>
</g>
</svg>
